HIERARCHY
ROOT Hips
{
	OFFSET 0.000000 0.000000 0.000000
	CHANNELS 6 Xposition Yposition Zposition Zrotation Xrotation Yrotation
	JOINT Spine1
	{
		OFFSET 0.000000 -0.000001 5.553894
		CHANNELS 6 Xposition Yposition Zposition Zrotation Xrotation Yrotation
		JOINT Neck
		{
			OFFSET 0.000000 -0.000001 4.427760
			CHANNELS 6 Xposition Yposition Zposition Zrotation Xrotation Yrotation
			JOINT Head
			{
				OFFSET 0.000000 -0.363272 2.815360
				CHANNELS 6 Xposition Yposition Zposition Zrotation Xrotation Yrotation
				End Site
				{
					OFFSET 0.000000 -0.000001 3.632711
				}
			}
		}
		JOINT LeftShoulder
		{
			OFFSET 0.731534 0.096024 3.575179
			CHANNELS 6 Xposition Yposition Zposition Zrotation Xrotation Yrotation
			JOINT LeftArm
			{
				OFFSET 2.610320 0.000000 0.000000
				CHANNELS 6 Xposition Yposition Zposition Zrotation Xrotation Yrotation
				JOINT LeftForeArm
				{
					OFFSET 5.118420 0.000000 0.000000
					CHANNELS 6 Xposition Yposition Zposition Zrotation Xrotation Yrotation
					JOINT LeftHand
					{
						OFFSET 4.756899 0.000000 0.000000
						CHANNELS 6 Xposition Yposition Zposition Zrotation Xrotation Yrotation
						End Site
						{
							OFFSET 2.724534 0.000000 0.000000
						}
					}
				}
			}
		}
		JOINT RightShoulder
		{
			OFFSET -0.721442 0.096024 3.575179
			CHANNELS 6 Xposition Yposition Zposition Zrotation Xrotation Yrotation
			JOINT RightArm
			{
				OFFSET -2.610320 0.000000 0.000000
				CHANNELS 6 Xposition Yposition Zposition Zrotation Xrotation Yrotation
				JOINT RightForeArm
				{
					OFFSET -5.118420 0.000000 0.000000
					CHANNELS 6 Xposition Yposition Zposition Zrotation Xrotation Yrotation
					JOINT RightHand
					{
						OFFSET -4.756900 0.000000 0.000000
						CHANNELS 6 Xposition Yposition Zposition Zrotation Xrotation Yrotation
						End Site
						{
							OFFSET -2.724534 0.000000 0.000000
						}
					}
				}
			}
		}
	}
	JOINT LeftUpLeg
	{
		OFFSET 1.816360 0.000000 0.000000
		CHANNELS 6 Xposition Yposition Zposition Zrotation Xrotation Yrotation
		JOINT LeftLeg
		{
			OFFSET 0.000000 0.000001 -7.638980
			CHANNELS 6 Xposition Yposition Zposition Zrotation Xrotation Yrotation
			JOINT LeftFoot
			{
				OFFSET 0.000000 0.000001 -8.008600
				CHANNELS 6 Xposition Yposition Zposition Zrotation Xrotation Yrotation
				JOINT LeftToeBase
				{
					OFFSET 0.000000 -2.724540 -1.180634
					CHANNELS 6 Xposition Yposition Zposition Zrotation Xrotation Yrotation
					End Site
					{
						OFFSET 0.000000 -0.726542 0.000000
					}
				}
			}
		}
	}
	JOINT RightUpLeg
	{
		OFFSET -1.816360 0.000000 0.000000
		CHANNELS 6 Xposition Yposition Zposition Zrotation Xrotation Yrotation
		JOINT RightLeg
		{
			OFFSET 0.000000 0.000001 -7.638980
			CHANNELS 6 Xposition Yposition Zposition Zrotation Xrotation Yrotation
			JOINT RightFoot
			{
				OFFSET 0.000000 0.000001 -8.008600
				CHANNELS 6 Xposition Yposition Zposition Zrotation Xrotation Yrotation
				JOINT RightToeBase
				{
					OFFSET 0.000000 -2.724540 -1.180634
					CHANNELS 6 Xposition Yposition Zposition Zrotation Xrotation Yrotation
					End Site
					{
						OFFSET 0.000000 -0.726542 0.000000
					}
				}
			}
		}
	}
}
MOTION
Frames: 10
Frame Time: 0.016667
2.273059 0.313901 14.934549 -4.092173 10.452165 -3.893384 -0.000000 -0.000001 5.553892 4.089726 -5.586029 -3.872967 0.000000 -0.000001 4.427758 -3.889884 6.574878 1.315639 -0.000000 -0.363272 2.815364 -4.005204 17.929358 -7.220234 0.731534 0.096024 3.575176 -0.111475 -7.751437 -18.326127 2.610320 0.000000 0.000001 -19.761231 7.262732 21.310745 5.118419 -0.000001 0.000002 -42.384848 3.319243 -32.266486 4.756900 -0.000001 0.000003 3.443353 -10.451271 -30.073268 -0.721442 0.096024 3.575179 2.681215 -5.822459 13.573334 -2.610320 -0.000000 -0.000000 58.236857 -0.584723 -54.625387 -5.118420 -0.000000 0.000000 112.785971 6.439816 33.646396 -4.756900 0.000001 -0.000001 -2.687520 -44.608689 6.069225 1.816360 0.000000 -0.000001 22.322882 -29.068670 -10.080093 -0.000000 0.000001 -7.638978 12.001822 38.539192 7.804512 0.000000 0.000002 -8.008599 18.185309 -7.730232 3.308835 0.000000 -2.724540 -1.180634 0.000002 -0.000001 0.000003 -1.816360 0.000000 -0.000001 8.062556 -21.376981 38.476501 0.000001 0.000001 -7.638979 -26.749751 29.958251 -16.868407 0.000001 0.000001 -8.008600 -27.986932 1.209731 -8.127549 -0.000000 -2.724540 -1.180634 0.000000 0.000001 0.000000 
2.270036 0.319189 14.935564 -4.038205 10.391567 -3.849721 -0.000000 -0.000001 5.553893 4.274524 -5.449741 -3.816592 -0.000000 -0.000001 4.427757 -4.296151 6.685688 1.342605 -0.000000 -0.363272 2.815358 -4.384209 18.528826 -7.677020 0.731534 0.096024 3.575176 -0.216759 -7.732400 -18.210080 2.610319 0.000000 -0.000002 -20.183289 7.275538 21.504740 5.118419 -0.000001 -0.000002 -42.968614 3.936244 -32.745320 4.756898 -0.000000 0.000002 3.175193 -10.189763 -30.751175 -0.721442 0.096024 3.575177 2.798169 -5.795285 13.455065 -2.610320 -0.000000 -0.000001 59.762810 -0.104083 -54.866363 -5.118418 0.000000 -0.000000 113.022494 5.759420 33.960780 -4.756899 -0.000001 -0.000001 -1.190199 -45.721730 8.014012 1.816360 -0.000000 -0.000001 22.245451 -29.065546 -10.150109 -0.000001 0.000002 -7.638979 11.963228 38.534770 7.807870 -0.000000 0.000001 -8.008598 18.203977 -7.713997 3.337461 0.000000 -2.724540 -1.180633 -0.000003 -0.000002 0.000001 -1.816360 -0.000000 -0.000001 8.724858 -20.627781 38.684142 -0.000000 0.000001 -7.638980 -27.488153 29.724772 -17.130606 0.000001 0.000001 -8.008600 -28.173533 1.192400 -8.015977 0.000000 -2.724539 -1.180634 -0.000001 -0.000000 0.000000 
2.266482 0.326371 14.936650 -3.972313 10.346849 -3.781226 -0.000000 -0.000001 5.553894 4.415001 -5.279819 -3.767561 0.000001 -0.000001 4.427758 -4.694574 6.747604 1.370454 -0.000000 -0.363272 2.815366 -4.754290 19.095619 -8.118985 0.731534 0.096024 3.575177 -0.285063 -7.770088 -18.132503 2.610319 -0.000000 -0.000000 -20.594434 7.348998 21.757843 5.118420 0.000000 0.000002 -43.505850 4.648397 -33.318042 4.756899 0.000001 -0.000000 3.055972 -9.896450 -31.162250 -0.721441 0.096024 3.575181 2.953425 -5.821225 13.378980 -2.610320 -0.000001 0.000000 60.806148 0.422449 -55.294879 -5.118416 -0.000000 -0.000001 114.001444 4.450296 33.772202 -4.756900 0.000001 0.000001 -2.896793 -47.255781 5.275479 1.816360 0.000000 -0.000000 22.160706 -29.105116 -10.233719 0.000001 0.000001 -7.638980 11.849182 38.538209 7.849351 -0.000000 0.000001 -8.008596 18.266274 -7.706415 3.319813 0.000001 -2.724540 -1.180634 -0.000002 0.000000 -0.000001 -1.816361 0.000000 -0.000001 8.641007 -20.598244 38.566912 0.000001 0.000001 -7.638980 -27.554872 29.709752 -17.086746 0.000000 0.000001 -8.008601 -28.144269 1.219539 -8.026020 -0.000000 -2.724540 -1.180634 -0.000001 0.000000 -0.000001 
2.263481 0.332583 14.936738 -3.896436 10.284160 -3.725430 0.000000 -0.000001 5.553895 4.575408 -5.123238 -3.710174 -0.000000 -0.000001 4.427762 -5.089239 6.869121 1.428522 0.000000 -0.363271 2.815360 -5.118109 19.595155 -8.634032 0.731533 0.096024 3.575181 -0.405424 -7.751120 -18.044209 2.610319 0.000000 -0.000003 -20.915146 7.363931 21.999681 5.118420 -0.000001 0.000001 -44.230447 5.285334 -33.849509 4.756896 -0.000001 -0.000001 2.813020 -9.700686 -31.674886 -0.721442 0.096024 3.575180 3.081509 -5.822978 13.281658 -2.610320 -0.000001 -0.000003 61.940014 0.990444 -55.581962 -5.118419 -0.000001 -0.000001 114.736209 3.249400 33.682108 -4.756902 0.000002 -0.000000 -3.284035 -48.578720 4.406173 1.816360 0.000000 -0.000000 22.134685 -29.141060 -10.279708 -0.000000 0.000002 -7.638980 11.829166 38.562999 7.794405 -0.000001 0.000002 -8.008600 18.215536 -7.696273 3.319434 0.000001 -2.724539 -1.180634 -0.000000 0.000001 -0.000001 -1.816360 0.000000 0.000001 8.273008 -20.811385 38.380124 -0.000001 0.000001 -7.638978 -27.335800 29.804463 -16.979596 -0.000000 0.000002 -8.008601 -28.028957 1.252496 -8.062597 0.000000 -2.724540 -1.180635 0.000004 0.000000 -0.000001 
2.261533 0.339034 14.936720 -3.817633 10.243884 -3.672493 -0.000000 -0.000001 5.553893 4.719863 -4.981663 -3.639081 0.000000 -0.000001 4.427759 -5.495369 6.955374 1.426704 -0.000000 -0.363271 2.815358 -5.490342 20.130791 -9.014484 0.731534 0.096024 3.575178 -0.512696 -7.768085 -17.952729 2.610320 0.000000 0.000001 -21.207251 7.342666 22.250615 5.118419 0.000000 -0.000001 -44.899355 6.043060 -34.339603 4.756897 0.000001 -0.000002 2.579527 -9.354990 -32.107271 -0.721442 0.096024 3.575177 3.254804 -5.867475 13.223641 -2.610320 -0.000001 0.000000 63.271116 1.639050 -55.854774 -5.118419 -0.000001 0.000001 115.570940 1.834799 33.522712 -4.756904 -0.000001 -0.000000 -2.846355 -50.015163 5.403850 1.816360 0.000000 -0.000002 22.055924 -29.178309 -10.342628 -0.000001 0.000002 -7.638980 11.749026 38.570348 7.820812 -0.000001 0.000002 -8.008599 18.243276 -7.701242 3.302548 0.000000 -2.724539 -1.180633 0.000002 -0.000001 0.000000 -1.816360 -0.000000 -0.000002 8.512233 -20.463402 38.428745 -0.000000 0.000001 -7.638979 -27.698493 29.695801 -17.098223 0.000000 0.000001 -8.008601 -28.097093 1.256429 -8.025430 0.000000 -2.724540 -1.180635 -0.000004 0.000000 0.000002 
2.259314 0.345915 14.936198 -3.735900 10.223788 -3.599341 -0.000000 -0.000001 5.553892 4.889708 -4.808724 -3.584237 0.000000 -0.000001 4.427761 -5.944469 7.042752 1.355286 0.000000 -0.363272 2.815363 -5.912511 20.549128 -9.318608 0.731535 0.096024 3.575181 -0.654703 -7.758827 -17.899284 2.610320 -0.000000 0.000001 -21.508003 7.348050 22.497721 5.118419 -0.000001 -0.000000 -45.550535 6.795911 -34.935711 4.756899 -0.000001 0.000001 2.535243 -9.110374 -32.230498 -0.721441 0.096024 3.575181 3.352978 -5.885722 13.155096 -2.610320 -0.000000 -0.000003 64.642843 2.555827 -56.183162 -5.118415 -0.000000 0.000001 115.705126 1.455853 33.952194 -4.756902 -0.000001 0.000000 -3.882719 -50.962569 2.557364 1.816360 0.000000 0.000001 21.960742 -29.256934 -10.428812 0.000001 0.000001 -7.638979 11.711629 38.606224 7.827458 0.000000 0.000001 -8.008599 18.239808 -7.707191 3.287502 -0.000000 -2.724540 -1.180633 -0.000002 -0.000001 -0.000002 -1.816360 0.000000 -0.000001 8.171047 -20.656203 38.262860 0.000000 0.000001 -7.638979 -27.439474 29.731960 -17.099370 0.000000 0.000001 -8.008601 -28.066562 1.294648 -8.054500 -0.000000 -2.724539 -1.180634 -0.000000 -0.000000 -0.000001 
2.258012 0.352046 14.935403 -3.652443 10.184459 -3.523475 0.000000 -0.000001 5.553894 5.015229 -4.633706 -3.528903 -0.000000 -0.000001 4.427760 -6.337226 7.098087 1.331740 -0.000000 -0.363270 2.815357 -6.270274 21.025277 -9.668080 0.731533 0.096024 3.575179 -0.802613 -7.774147 -17.806525 2.610318 -0.000000 0.000000 -21.726354 7.398154 22.758257 5.118420 0.000000 0.000005 -46.255264 7.597661 -35.565806 4.756899 0.000002 0.000000 2.457811 -8.853373 -32.329194 -0.721443 0.096024 3.575180 3.556740 -5.874439 13.104311 -2.610320 -0.000001 0.000001 65.945176 3.441439 -56.426088 -5.118420 -0.000000 0.000001 116.257620 0.466667 34.086923 -4.756903 -0.000001 0.000002 -4.330523 -52.244230 1.587870 1.816360 0.000000 0.000001 21.868722 -29.314223 -10.520522 -0.000001 0.000001 -7.638980 11.680101 38.636246 7.829289 -0.000001 0.000002 -8.008599 18.215683 -7.723996 3.260222 0.000000 -2.724540 -1.180633 -0.000002 -0.000001 -0.000001 -1.816360 -0.000000 0.000000 8.105894 -20.590628 38.181495 0.000001 0.000002 -7.638981 -27.525574 29.719000 -17.113427 0.000001 0.000001 -8.008601 -28.087789 1.333550 -8.018840 0.000000 -2.724540 -1.180634 0.000002 0.000002 -0.000000 
2.256630 0.358954 14.934945 -3.581332 10.153669 -3.450819 -0.000000 -0.000001 5.553893 5.166996 -4.447225 -3.458848 -0.000000 -0.000001 4.427762 -6.729681 7.129575 1.245177 -0.000000 -0.363271 2.815357 -6.626595 21.473855 -9.967042 0.731534 0.096024 3.575183 -0.916692 -7.785807 -17.725068 2.610320 -0.000000 0.000001 -21.978753 7.403153 23.033594 5.118419 -0.000001 -0.000003 -46.868475 8.465155 -36.231029 4.756896 0.000001 -0.000003 2.344810 -8.514545 -32.490523 -0.721442 0.096024 3.575182 3.675429 -5.803364 13.050826 -2.610320 -0.000001 -0.000002 67.426685 4.390665 -56.605848 -5.118418 -0.000000 0.000004 116.783449 -0.523379 34.350497 -4.756901 0.000002 0.000001 -4.860691 -53.661590 0.597261 1.816360 0.000000 -0.000001 21.812429 -29.382145 -10.592040 -0.000001 0.000001 -7.638980 11.684394 38.670308 7.794864 0.000000 0.000001 -8.008599 18.157981 -7.731661 3.227997 0.000001 -2.724540 -1.180632 -0.000001 -0.000002 -0.000002 -1.816360 0.000000 0.000000 8.076614 -20.523130 38.113395 0.000001 0.000001 -7.638980 -27.596785 29.706173 -17.133028 -0.000000 0.000001 -8.008602 -28.090891 1.348751 -8.088942 -0.000000 -2.724540 -1.180634 -0.000003 0.000001 -0.000000 
2.256180 0.365143 14.933934 -3.524848 10.125850 -3.393566 -0.000000 -0.000001 5.553894 5.336606 -4.252202 -3.370980 0.000001 -0.000001 4.427761 -7.108821 7.157438 1.186755 0.000000 -0.363273 2.815362 -6.967122 21.889341 -10.328918 0.731534 0.096024 3.575179 -1.033989 -7.813148 -17.651398 2.610319 0.000000 -0.000004 -22.318705 7.542572 23.308828 5.118419 0.000001 0.000002 -47.480845 9.200450 -36.989682 4.756899 -0.000002 -0.000003 2.350308 -8.398778 -32.659277 -0.721442 0.096024 3.575178 3.881279 -5.755505 13.019400 -2.610320 -0.000001 0.000000 68.696267 5.396948 -56.825152 -5.118420 0.000000 0.000002 117.248667 -1.540380 34.499811 -4.756902 0.000000 -0.000002 -5.527874 -54.832574 -1.157794 1.816360 -0.000000 0.000000 21.646237 -29.412383 -10.731841 0.000000 0.000002 -7.638981 11.614401 38.698861 7.924821 -0.000000 0.000002 -8.008599 18.229625 -7.754999 3.192588 -0.000000 -2.724540 -1.180634 -0.000005 0.000001 0.000000 -1.816360 -0.000000 -0.000000 8.039918 -20.477546 38.066970 -0.000000 0.000001 -7.638980 -27.675981 29.703482 -17.146918 -0.000000 0.000001 -8.008600 -28.085465 1.408293 -8.017550 -0.000000 -2.724540 -1.180634 0.000000 0.000001 0.000001 
2.255476 0.372969 14.932073 -3.457859 10.092812 -3.313628 0.000000 -0.000001 5.553893 5.506993 -4.009979 -3.288785 0.000000 -0.000001 4.427760 -7.488642 7.154338 1.120084 -0.000000 -0.363271 2.815359 -7.305171 22.287090 -10.724065 0.731534 0.096024 3.575179 -1.179826 -7.843923 -17.572154 2.610319 -0.000000 0.000002 -22.596132 7.457749 23.473186 5.118420 0.000001 0.000002 -48.046727 9.947528 -37.511918 4.756898 -0.000000 -0.000002 2.237172 -8.109917 -32.765387 -0.721442 0.096024 3.575180 4.062552 -5.696140 12.955136 -2.610320 -0.000001 -0.000001 70.032279 6.467853 -57.029252 -5.118418 0.000000 0.000001 117.274389 -1.959431 34.976791 -4.756903 -0.000000 -0.000001 -6.209745 -55.684869 -3.424783 1.816360 0.000000 -0.000000 21.552363 -29.490073 -10.838241 -0.000000 0.000001 -7.638980 11.562627 38.760760 7.956773 -0.000000 0.000001 -8.008601 18.240778 -7.788737 3.157184 0.000000 -2.724540 -1.180635 0.000000 0.000002 -0.000001 -1.816360 0.000000 0.000000 8.067604 -20.373582 38.030346 0.000001 0.000001 -7.638981 -27.859508 29.715448 -17.167610 -0.000000 0.000001 -8.008600 -28.039245 1.437652 -8.022200 -0.000000 -2.724540 -1.180634 -0.000002 0.000000 0.000000 
